<?xml version="1.0" standalone="no"?>
<!DOCTYPE svg PUBLIC "-//W3C//DTD SVG 20010904//EN"
 "http://www.w3.org/TR/2001/REC-SVG-20010904/DTD/svg10.dtd">
<svg version="1.0" xmlns="http://www.w3.org/2000/svg"
 width="565.000000pt" height="647.000000pt" viewBox="0 0 565.000000 647.000000"
 preserveAspectRatio="xMidYMid meet">

<g transform="translate(0.000000,647.000000) scale(0.100000,-0.100000)"
fill="#FFFFFF" stroke="none">
<path d="M2750 6349 c-61 -17 -111 -41 -255 -125 -77 -44 -282 -162 -455 -261
-173 -99 -466 -267 -650 -373 -396 -228 -918 -524 -1045 -593 -147 -79 -228
-176 -255 -304 -7 -32 -10 -526 -8 -1478 l3 -1430 32 -65 c40 -81 89 -139 150
-177 27 -17 203 -117 393 -223 286 -160 1170 -664 1873 -1068 177 -102 229
-118 342 -109 92 8 143 29 316 130 205 120 1700 971 2074 1181 165 92 205 124
253 196 83 124 77 -7 80 1555 2 940 -1 1412 -8 1459 -6 37 -22 93 -36 123 -49
103 -100 142 -449 340 -481 273 -844 481 -1063 607 -108 62 -303 174 -432 248
-129 74 -300 173 -380 220 -184 108 -223 128 -285 144 -57 16 -143 17 -195 3z
m1198 -1146 c592 -338 1086 -622 1098 -629 11 -8 26 -26 32 -40 9 -18 12 -357
12 -1298 0 -1262 0 -1274 -20 -1299 -11 -14 -98 -69 -193 -123 -331 -187
-1873 -1067 -1936 -1105 -37 -22 -78 -39 -94 -39 -21 0 -129 57 -341 179 -171
98 -396 227 -501 286 -104 59 -350 199 -545 310 -462 262 -657 373 -752 425
-133 72 -118 -103 -118 1376 l0 1282 25 31 c14 16 76 58 138 92 62 34 378 214
704 400 595 340 1250 711 1332 756 26 13 52 21 63 17 11 -3 504 -283 1096
-621z"/>
<path d="M2695 5170 c-410 -46 -778 -264 -1018 -602 -216 -303 -300 -684 -200
-897 34 -71 123 -161 186 -187 l48 -19 -3 -501 -3 -501 -27 -35 c-19 -25 -43
-42 -78 -53 -88 -29 -140 -89 -140 -160 0 -88 64 -155 155 -163 143 -12 332
162 393 362 13 43 17 143 21 611 l6 560 28 3 c39 5 71 -19 104 -75 l28 -48 0
-735 c0 -855 10 -780 -110 -840 -86 -43 -115 -82 -115 -152 0 -59 19 -98 63
-132 82 -62 190 -37 306 70 84 78 144 188 161 294 6 39 10 353 10 790 0 473 4
738 11 763 19 70 92 88 133 34 21 -28 21 -31 26 -1130 4 -845 8 -1107 17
-1123 19 -33 69 -72 102 -79 66 -14 154 38 180 108 8 19 11 367 11 1095 0 707
4 1080 10 1104 20 70 79 75 127 11 l28 -36 5 -791 c6 -887 -1 -810 82 -942 71
-115 194 -204 279 -204 53 0 138 47 160 90 24 45 24 101 0 149 -22 43 -49 63
-118 89 -37 14 -51 26 -70 61 l-23 44 0 721 c0 493 4 734 11 761 21 76 108
132 147 93 9 -9 12 -143 12 -543 0 -341 4 -553 11 -591 26 -140 142 -294 271
-359 109 -54 196 -43 261 34 74 89 21 218 -106 255 -29 8 -62 26 -74 38 -48
54 -48 48 -51 503 -2 237 -1 457 3 490 6 60 7 61 52 85 184 97 254 281 208
546 -73 419 -389 819 -796 1007 -183 85 -336 123 -537 131 -59 3 -143 1 -187
-4z m337 -324 c385 -74 739 -393 858 -771 30 -97 39 -245 16 -280 -25 -38 -51
-32 -82 20 -76 130 -217 179 -346 121 -59 -26 -95 -60 -131 -124 l-24 -42 -18
41 c-39 85 -140 149 -238 149 -75 0 -166 -52 -207 -119 -14 -23 -28 -41 -31
-41 -4 0 -12 14 -19 30 -27 64 -113 119 -200 127 -109 10 -211 -46 -259 -142
l-24 -48 -12 31 c-19 44 -82 110 -129 135 -31 16 -59 21 -116 22 -118 0 -170
-33 -241 -153 -45 -77 -96 -6 -84 118 24 258 195 543 432 723 125 95 303 175
451 201 102 19 312 20 404 2z"/>
</g>
</svg>
